<svg version="1.1" xmlns="http://www.w3.org/2000/svg" xmlns:xlink="http://www.w3.org/1999/xlink" width="92.64473" height="32.32242" viewBox="0,0,92.64473,32.32242"><g transform="translate(-193.67763,-163.83879)"><g data-paper-data="{&quot;isPaintingLayer&quot;:true}" fill="#ffffff" fill-rule="nonzero" stroke-width="0" stroke-linecap="butt" stroke-linejoin="miter" stroke-miterlimit="10" stroke-dasharray="" stroke-dashoffset="0" style="mix-blend-mode: normal"><path d="M234.93125,182.55178c0,6.10698 -9.23494,11.05767 -20.62681,11.05767c-11.39187,0 -20.62681,-4.95069 -20.62681,-11.05767c0,-6.10698 9.23494,-11.05767 20.62681,-11.05767c11.39187,0 20.62681,4.95069 20.62681,11.05767z" stroke="#000000"/><path d="M257.8972,175.53441c0,6.45931 -8.5685,11.69562 -19.13828,11.69562c-10.56978,0 -19.13828,-5.2363 -19.13828,-11.69562c0,-6.45931 8.5685,-11.69562 19.13828,-11.69562c10.56978,0 19.13828,5.2363 19.13828,11.69562z" stroke="none"/><path d="M268.10427,188.5059c0,4.22791 -9.99658,7.65531 -22.32799,7.65531c-12.33141,0 -22.32799,-3.4274 -22.32799,-7.65531c0,-4.22791 9.99658,-7.65531 22.32799,-7.65531c12.33141,0 22.32799,3.4274 22.32799,7.65531z" stroke="none"/><path d="M286.32237,180c0,6.65362 -8.28808,12.04745 -18.51194,12.04745c-10.22386,0 -18.51194,-5.39383 -18.51194,-12.04745c0,-6.65362 8.28808,-12.04745 18.51194,-12.04745c10.22386,0 18.51194,5.39383 18.51194,12.04745z" stroke="none"/></g></g></svg>